<svg xmlns="http://www.w3.org/2000/svg" width="1200" height="820" viewBox="0 0 1200 820">
  <defs>
    <linearGradient id="bg" x1="0" y1="0" x2="1" y2="1">
      <stop offset="0%" stop-color="#22D3EE"/>
      <stop offset="100%" stop-color="#2563EB"/>
    </linearGradient>
    <filter id="shadow" x="-20%" y="-20%" width="140%" height="140%">
      <feDropShadow dx="0" dy="18" stdDeviation="18" flood-color="#020617" flood-opacity="0.35"/>
    </filter>
    <pattern id="dots" width="28" height="28" patternUnits="userSpaceOnUse">
      <circle cx="4" cy="4" r="2" fill="rgba(255,255,255,0.20)"/>
    </pattern>
  </defs>
  <rect width="1200" height="820" rx="44" fill="#050816"/>
  <rect x="28" y="28" width="1144" height="764" rx="38" fill="url(#bg)"/>
  <rect x="28" y="28" width="1144" height="764" rx="38" fill="url(#dots)" opacity="0.45"/>
  <path d="M0 640 C260 520 380 760 650 610 C850 500 960 530 1200 430 L1200 820 L0 820 Z" fill="rgba(255,255,255,0.16)"/>
  <path d="M80 120 C250 35 420 45 560 115" stroke="rgba(255,255,255,0.35)" stroke-width="16" stroke-linecap="round" fill="none"/>
  <g filter="url(#shadow)">
    <rect x="94" y="92" width="1012" height="560" rx="34" fill="rgba(255,255,255,0.92)"/>
    <rect x="124" y="122" width="952" height="500" rx="26" fill="#F8FAFC"/>
  </g>
  <rect x="165" y="165" width="870" height="380" rx="34" fill="#E0F2FE" stroke="#0284C7" stroke-width="10"/>
  <circle cx="600" cy="325" r="150" fill="#DBEAFE" stroke="#2563EB" stroke-width="16"/>
  <path d="M520 325 L575 385 L695 250" stroke="#22C55E" stroke-width="30" fill="none" stroke-linecap="round" stroke-linejoin="round"/>
  <text x="600" y="575" font-family="Inter, Arial" font-size="42" font-weight="900" text-anchor="middle" fill="#0F172A">HEIMDALL</text>
  <g filter="url(#shadow)">
    <rect x="160" y="120" width="300" height="82" rx="22" fill="#FFFFFF"/>
    <text x="310.0" y="169.0" font-family="Inter, Arial, sans-serif" font-size="28" font-weight="800" text-anchor="middle" fill="#0F172A">Риски выявлены</text>
  </g>
  <g filter="url(#shadow)">
    <rect x="740" y="120" width="300" height="82" rx="22" fill="#FFFFFF"/>
    <text x="890.0" y="169.0" font-family="Inter, Arial, sans-serif" font-size="28" font-weight="800" text-anchor="middle" fill="#0F172A">Клиент защищён</text>
  </g>
  <g>
    <rect x="94" y="675" width="1012" height="82" rx="28" fill="rgba(15,23,42,0.82)"/>
    <text x="132" y="725" font-family="Inter, Arial, sans-serif" font-size="34" font-weight="800" fill="#FFFFFF">HEIMDALL проверяет заранее</text>
    <text x="760" y="724" font-family="Inter, Arial, sans-serif" font-size="24" font-weight="700" fill="#BAE6FD">HEIMDALL checks upfront</text>
  </g>
  <text x="1030" y="168" font-family="Inter, Arial, sans-serif" font-size="72" text-anchor="middle">🛡️</text>
</svg>