<svg xmlns="http://www.w3.org/2000/svg" width="1200" height="820" viewBox="0 0 1200 820">
  <defs>
    <linearGradient id="bg" x1="0" y1="0" x2="1" y2="1">
      <stop offset="0%" stop-color="#F43F5E"/>
      <stop offset="100%" stop-color="#8B5CF6"/>
    </linearGradient>
    <filter id="shadow" x="-20%" y="-20%" width="140%" height="140%">
      <feDropShadow dx="0" dy="18" stdDeviation="18" flood-color="#020617" flood-opacity="0.35"/>
    </filter>
    <pattern id="dots" width="28" height="28" patternUnits="userSpaceOnUse">
      <circle cx="4" cy="4" r="2" fill="rgba(255,255,255,0.20)"/>
    </pattern>
  </defs>
  <rect width="1200" height="820" rx="44" fill="#050816"/>
  <rect x="28" y="28" width="1144" height="764" rx="38" fill="url(#bg)"/>
  <rect x="28" y="28" width="1144" height="764" rx="38" fill="url(#dots)" opacity="0.45"/>
  <path d="M0 640 C260 520 380 760 650 610 C850 500 960 530 1200 430 L1200 820 L0 820 Z" fill="rgba(255,255,255,0.16)"/>
  <path d="M80 120 C250 35 420 45 560 115" stroke="rgba(255,255,255,0.35)" stroke-width="16" stroke-linecap="round" fill="none"/>
  <g filter="url(#shadow)">
    <rect x="94" y="92" width="1012" height="560" rx="34" fill="rgba(255,255,255,0.92)"/>
    <rect x="124" y="122" width="952" height="500" rx="26" fill="#F8FAFC"/>
  </g>
  <rect x="165" y="155" width="870" height="390" rx="34" fill="#FFF7ED" stroke="#F97316" stroke-width="10"/>
  <g>
    <rect x="210" y="210" width="220" height="250" rx="24" fill="#FFE4E6" stroke="#E11D48" stroke-width="7"/>
    <text x="320" y="310" font-family="Arial" font-size="82" text-anchor="middle">💸</text>
    <text x="320" y="405" font-family="Inter, Arial" font-size="32" font-weight="800" text-anchor="middle" fill="#9F1239">Долги</text>
  </g>
  <g>
    <rect x="490" y="210" width="220" height="250" rx="24" fill="#FEF3C7" stroke="#F59E0B" stroke-width="7"/>
    <text x="600" y="310" font-family="Arial" font-size="82" text-anchor="middle">🚩</text>
    <text x="600" y="405" font-family="Inter, Arial" font-size="32" font-weight="800" text-anchor="middle" fill="#92400E">Репутация</text>
  </g>
  <g>
    <rect x="770" y="210" width="220" height="250" rx="24" fill="#E0E7FF" stroke="#4F46E5" stroke-width="7"/>
    <text x="880" y="310" font-family="Arial" font-size="82" text-anchor="middle">📄</text>
    <text x="880" y="390" font-family="Inter, Arial" font-size="28" font-weight="800" text-anchor="middle" fill="#3730A3">учёт</text>
    <text x="880" y="424" font-family="Inter, Arial" font-size="24" font-weight="700" text-anchor="middle" fill="#3730A3">вопросы</text>
  </g>
  <g>
    <rect x="94" y="675" width="1012" height="82" rx="28" fill="rgba(15,23,42,0.82)"/>
    <text x="132" y="725" font-family="Inter, Arial, sans-serif" font-size="34" font-weight="800" fill="#FFFFFF">Скрытые проблемы</text>
    <text x="760" y="724" font-family="Inter, Arial, sans-serif" font-size="24" font-weight="700" fill="#BAE6FD">Hidden issues</text>
  </g>
  <text x="1030" y="168" font-family="Inter, Arial, sans-serif" font-size="72" text-anchor="middle">⚠️</text>
</svg>