<svg xmlns="http://www.w3.org/2000/svg" width="1200" height="820" viewBox="0 0 1200 820">
  <defs>
    <linearGradient id="bg" x1="0" y1="0" x2="1" y2="1">
      <stop offset="0%" stop-color="#FB7185"/>
      <stop offset="100%" stop-color="#F97316"/>
    </linearGradient>
    <filter id="shadow" x="-20%" y="-20%" width="140%" height="140%">
      <feDropShadow dx="0" dy="18" stdDeviation="18" flood-color="#020617" flood-opacity="0.35"/>
    </filter>
    <pattern id="dots" width="28" height="28" patternUnits="userSpaceOnUse">
      <circle cx="4" cy="4" r="2" fill="rgba(255,255,255,0.20)"/>
    </pattern>
  </defs>
  <rect width="1200" height="820" rx="44" fill="#050816"/>
  <rect x="28" y="28" width="1144" height="764" rx="38" fill="url(#bg)"/>
  <rect x="28" y="28" width="1144" height="764" rx="38" fill="url(#dots)" opacity="0.45"/>
  <path d="M0 640 C260 520 380 760 650 610 C850 500 960 530 1200 430 L1200 820 L0 820 Z" fill="rgba(255,255,255,0.16)"/>
  <path d="M80 120 C250 35 420 45 560 115" stroke="rgba(255,255,255,0.35)" stroke-width="16" stroke-linecap="round" fill="none"/>
  <g filter="url(#shadow)">
    <rect x="94" y="92" width="1012" height="560" rx="34" fill="rgba(255,255,255,0.92)"/>
    <rect x="124" y="122" width="952" height="500" rx="26" fill="#F8FAFC"/>
  </g>
  <rect x="165" y="190" width="360" height="300" rx="34" fill="#FEE2E2" stroke="#DC2626" stroke-width="10"/>
  <text x="345" y="370" font-family="Arial" font-size="160" font-weight="900" text-anchor="middle" fill="#DC2626">!</text>
  <g>
    <circle cx="720" cy="315" r="42" fill="#FBCFE8"/>
    <path d="M676 305 C705 257 752 263 768 305 C740 291 715 293 676 305Z" fill="#111827"/>
    <circle cx="706" cy="319" r="5" fill="#0F172A"/>
    <circle cx="736" cy="319" r="5" fill="#0F172A"/>
    <path d="M706 337 Q720 351 738 337" stroke="#0F172A" stroke-width="5" fill="none" stroke-linecap="round"/>
    <path d="M650 463 C675 385 772 385 796 463Z" fill="#64748B"/>
    <rect x="642" y="427" width="156" height="94" rx="24" fill="#64748B"/>
  </g>
  <g>
    <circle cx="900" cy="315" r="42" fill="#FBCFE8"/>
    <path d="M856 305 C885 257 932 263 948 305 C920 291 895 293 856 305Z" fill="#334155"/>
    <circle cx="886" cy="319" r="5" fill="#0F172A"/>
    <circle cx="916" cy="319" r="5" fill="#0F172A"/>
    <path d="M886 337 Q900 351 918 337" stroke="#0F172A" stroke-width="5" fill="none" stroke-linecap="round"/>
    <path d="M830 463 C855 385 952 385 976 463Z" fill="#EF4444"/>
    <rect x="822" y="427" width="156" height="94" rx="24" fill="#EF4444"/>
  </g>
  <path d="M780 235 L940 395 M940 235 L780 395" stroke="#DC2626" stroke-width="26" stroke-linecap="round"/>
  <g filter="url(#shadow)">
    <rect x="140" y="125" width="300" height="82" rx="22" fill="#FFFFFF"/>
    <text x="290.0" y="174.0" font-family="Inter, Arial, sans-serif" font-size="28" font-weight="800" text-anchor="middle" fill="#0F172A">Стоп. Есть риски.</text>
  </g>
  <g filter="url(#shadow)">
    <rect x="775" y="130" width="230" height="82" rx="22" fill="#FFFFFF"/>
    <text x="890.0" y="179.0" font-family="Inter, Arial, sans-serif" font-size="28" font-weight="800" text-anchor="middle" fill="#0F172A">Как так?</text>
  </g>
  <g>
    <rect x="94" y="675" width="1012" height="82" rx="28" fill="rgba(15,23,42,0.82)"/>
    <text x="132" y="725" font-family="Inter, Arial, sans-serif" font-size="34" font-weight="800" fill="#FFFFFF">Служба безопасности разворачивает</text>
    <text x="760" y="724" font-family="Inter, Arial, sans-serif" font-size="24" font-weight="700" fill="#BAE6FD">Security rejects the candidate</text>
  </g>
  <text x="1030" y="168" font-family="Inter, Arial, sans-serif" font-size="72" text-anchor="middle">⛔</text>
</svg>