<svg xmlns="http://www.w3.org/2000/svg" width="1200" height="820" viewBox="0 0 1200 820">
  <defs>
    <linearGradient id="bg6" x1="0" y1="0" x2="1" y2="1">
      <stop offset="0%" stop-color="#22D3EE"/>
      <stop offset="100%" stop-color="#2563EB"/>
    </linearGradient>
    <filter id="shadow6" x="-20%" y="-20%" width="140%" height="140%">
      <feDropShadow dx="0" dy="18" stdDeviation="18" flood-color="#020617" flood-opacity="0.35"/>
    </filter>
    <pattern id="dots6" width="30" height="30" patternUnits="userSpaceOnUse">
      <circle cx="5" cy="5" r="2" fill="white" opacity="0.22"/>
    </pattern>
  </defs>

  <rect width="1200" height="820" rx="48" fill="#050816"/>
  <rect x="28" y="28" width="1144" height="764" rx="42" fill="url(#bg6)"/>
  <rect x="28" y="28" width="1144" height="764" rx="42" fill="url(#dots6)"/>
  <path d="M0 650 C260 520 390 760 660 615 C850 510 980 535 1200 430 L1200 820 L0 820 Z" fill="white" opacity="0.15"/>

  <g filter="url(#shadow6)">
    <rect x="95" y="90" width="1010" height="560" rx="38" fill="#ffffff" opacity="0.94"/>
    <rect x="130" y="125" width="940" height="490" rx="30" fill="#f8fafc"/>
  </g>

  <circle cx="600" cy="355" r="155" fill="#DBEAFE" stroke="#2563EB" stroke-width="16"/>
  <circle cx="420" cy="350" r="92" fill="#FBCFE8" stroke="#0F172A" stroke-width="9"/>
  <circle cx="780" cy="350" r="92" fill="#BFDBFE" stroke="#0F172A" stroke-width="9"/>
  <rect x="320" y="445" width="200" height="90" rx="30" fill="#2563EB"/>
  <rect x="680" y="445" width="200" height="90" rx="30" fill="#7C3AED"/>
  <path d="M520 355 C575 305 625 305 680 355" stroke="#0F172A" stroke-width="12" fill="none" stroke-linecap="round"/>
  <text x="600" y="385" font-family="Arial, sans-serif" font-size="120" text-anchor="middle">🛡️</text>

  <g filter="url(#shadow6)">
    <rect x="130" y="145" width="330" height="88" rx="28" fill="#ffffff"/>
    <text x="295" y="199" font-family="Arial, sans-serif" font-size="28" font-weight="800" text-anchor="middle" fill="#0F172A">Риски выявлены</text>
  </g>

  <g filter="url(#shadow6)">
    <rect x="740" y="145" width="330" height="88" rx="28" fill="#ffffff"/>
    <text x="905" y="199" font-family="Arial, sans-serif" font-size="28" font-weight="800" text-anchor="middle" fill="#0F172A">Клиент защищён</text>
  </g>

  <rect x="94" y="675" width="1012" height="82" rx="28" fill="#0F172A" opacity="0.86"/>
  <text x="132" y="725" font-family="Arial, sans-serif" font-size="34" font-weight="800" fill="#FFFFFF">HEIMDALL заранее</text>
  <text x="770" y="724" font-family="Arial, sans-serif" font-size="24" font-weight="700" fill="#BAE6FD">HEIMDALL upfront</text>
</svg>