<svg xmlns="http://www.w3.org/2000/svg" width="1200" height="820" viewBox="0 0 1200 820">
  <defs>
    <linearGradient id="bg" x1="0" y1="0" x2="1" y2="1">
      <stop offset="0%" stop-color="#38BDF8"/>
      <stop offset="100%" stop-color="#22C55E"/>
    </linearGradient>
    <filter id="shadow" x="-20%" y="-20%" width="140%" height="140%">
      <feDropShadow dx="0" dy="18" stdDeviation="18" flood-color="#020617" flood-opacity="0.35"/>
    </filter>
    <pattern id="dots" width="28" height="28" patternUnits="userSpaceOnUse">
      <circle cx="4" cy="4" r="2" fill="rgba(255,255,255,0.20)"/>
    </pattern>
  </defs>
  <rect width="1200" height="820" rx="44" fill="#050816"/>
  <rect x="28" y="28" width="1144" height="764" rx="38" fill="url(#bg)"/>
  <rect x="28" y="28" width="1144" height="764" rx="38" fill="url(#dots)" opacity="0.45"/>
  <path d="M0 640 C260 520 380 760 650 610 C850 500 960 530 1200 430 L1200 820 L0 820 Z" fill="rgba(255,255,255,0.16)"/>
  <path d="M80 120 C250 35 420 45 560 115" stroke="rgba(255,255,255,0.35)" stroke-width="16" stroke-linecap="round" fill="none"/>
  <g filter="url(#shadow)">
    <rect x="94" y="92" width="1012" height="560" rx="34" fill="rgba(255,255,255,0.92)"/>
    <rect x="124" y="122" width="952" height="500" rx="26" fill="#F8FAFC"/>
  </g>
  <rect x="170" y="175" width="390" height="300" rx="30" fill="#ECFEFF" stroke="#0891B2" stroke-width="8"/>
  <circle cx="350" cy="300" r="86" fill="none" stroke="#0891B2" stroke-width="18"/>
  <line x1="415" y1="365" x2="500" y2="450" stroke="#0891B2" stroke-width="22" stroke-linecap="round"/>
  <g>
    <circle cx="740" cy="300" r="42" fill="#FBCFE8"/>
    <path d="M696 290 C725 242 772 248 788 290 C760 276 735 278 696 290Z" fill="#111827"/>
    <circle cx="726" cy="304" r="5" fill="#0F172A"/>
    <circle cx="756" cy="304" r="5" fill="#0F172A"/>
    <path d="M726 322 Q740 336 758 322" stroke="#0F172A" stroke-width="5" fill="none" stroke-linecap="round"/>
    <path d="M670 448 C695 370 792 370 816 448Z" fill="#0EA5E9"/>
    <rect x="662" y="412" width="156" height="94" rx="24" fill="#0EA5E9"/>
  </g>
  <rect x="840" y="210" width="160" height="230" rx="22" fill="#DCFCE7" stroke="#16A34A" stroke-width="8"/>
  <line x1="870" y1="260" x2="970" y2="260" stroke="#16A34A" stroke-width="10"/>
  <line x1="870" y1="310" x2="970" y2="310" stroke="#16A34A" stroke-width="10"/>
  <line x1="870" y1="360" x2="940" y2="360" stroke="#16A34A" stroke-width="10"/>
  <g filter="url(#shadow)">
    <rect x="155" y="120" width="230" height="82" rx="22" fill="#FFFFFF"/>
    <text x="270.0" y="169.0" font-family="Inter, Arial, sans-serif" font-size="28" font-weight="800" text-anchor="middle" fill="#0F172A">40 резюме</text>
  </g>
  <g filter="url(#shadow)">
    <rect x="760" y="125" width="230" height="82" rx="22" fill="#FFFFFF"/>
    <text x="875.0" y="174.0" font-family="Inter, Arial, sans-serif" font-size="28" font-weight="800" text-anchor="middle" fill="#0F172A">8 интервью</text>
  </g>
  <g>
    <rect x="94" y="675" width="1012" height="82" rx="28" fill="rgba(15,23,42,0.82)"/>
    <text x="132" y="725" font-family="Inter, Arial, sans-serif" font-size="34" font-weight="800" fill="#FFFFFF">Недели поиска</text>
    <text x="760" y="724" font-family="Inter, Arial, sans-serif" font-size="24" font-weight="700" fill="#BAE6FD">Weeks of search</text>
  </g>
  <text x="1030" y="168" font-family="Inter, Arial, sans-serif" font-size="72" text-anchor="middle">🔎</text>
</svg>