<svg xmlns="http://www.w3.org/2000/svg" width="1200" height="820" viewBox="0 0 1200 820">
  <defs>
    <linearGradient id="bg" x1="0" y1="0" x2="1" y2="1">
      <stop offset="0%" stop-color="#60A5FA"/>
      <stop offset="100%" stop-color="#A78BFA"/>
    </linearGradient>
    <filter id="shadow" x="-20%" y="-20%" width="140%" height="140%">
      <feDropShadow dx="0" dy="18" stdDeviation="18" flood-color="#020617" flood-opacity="0.35"/>
    </filter>
    <pattern id="dots" width="28" height="28" patternUnits="userSpaceOnUse">
      <circle cx="4" cy="4" r="2" fill="rgba(255,255,255,0.20)"/>
    </pattern>
  </defs>
  <rect width="1200" height="820" rx="44" fill="#050816"/>
  <rect x="28" y="28" width="1144" height="764" rx="38" fill="url(#bg)"/>
  <rect x="28" y="28" width="1144" height="764" rx="38" fill="url(#dots)" opacity="0.45"/>
  <path d="M0 640 C260 520 380 760 650 610 C850 500 960 530 1200 430 L1200 820 L0 820 Z" fill="rgba(255,255,255,0.16)"/>
  <path d="M80 120 C250 35 420 45 560 115" stroke="rgba(255,255,255,0.35)" stroke-width="16" stroke-linecap="round" fill="none"/>
  <g filter="url(#shadow)">
    <rect x="94" y="92" width="1012" height="560" rx="34" fill="rgba(255,255,255,0.92)"/>
    <rect x="124" y="122" width="952" height="500" rx="26" fill="#F8FAFC"/>
  </g>
  <rect x="164" y="470" width="872" height="32" rx="16" fill="#CBD5E1"/>
  <rect x="230" y="195" width="310" height="200" rx="28" fill="#DBEAFE" stroke="#1D4ED8" stroke-width="8"/>
  <path d="M270 330 L330 270 L385 310 L470 230" stroke="#2563EB" stroke-width="16" fill="none" stroke-linecap="round" stroke-linejoin="round"/>
  <g>
    <circle cx="710" cy="300" r="42" fill="#FBCFE8"/>
    <path d="M666 290 C695 242 742 248 758 290 C730 276 705 278 666 290Z" fill="#111827"/>
    <circle cx="696" cy="304" r="5" fill="#0F172A"/>
    <circle cx="726" cy="304" r="5" fill="#0F172A"/>
    <path d="M696 322 Q710 336 728 322" stroke="#0F172A" stroke-width="5" fill="none" stroke-linecap="round"/>
    <path d="M640 448 C665 370 762 370 786 448Z" fill="#2563EB"/>
    <rect x="632" y="412" width="156" height="94" rx="24" fill="#2563EB"/>
  </g>
  <g>
    <circle cx="875" cy="320" r="42" fill="#FBCFE8"/>
    <path d="M831 310 C860 262 907 268 923 310 C895 296 870 298 831 310Z" fill="#334155"/>
    <circle cx="861" cy="324" r="5" fill="#0F172A"/>
    <circle cx="891" cy="324" r="5" fill="#0F172A"/>
    <path d="M861 342 Q875 356 893 342" stroke="#0F172A" stroke-width="5" fill="none" stroke-linecap="round"/>
    <path d="M805 468 C830 390 927 390 951 468Z" fill="#7C3AED"/>
    <rect x="797" y="432" width="156" height="94" rx="24" fill="#7C3AED"/>
  </g>
  <g filter="url(#shadow)">
    <rect x="160" y="140" width="300" height="86" rx="22" fill="#FFFFFF"/>
    <text x="310.0" y="191.0" font-family="Inter, Arial, sans-serif" font-size="28" font-weight="800" text-anchor="middle" fill="#0F172A">Нужен сильный кандидат!</text>
  </g>
  <g filter="url(#shadow)">
    <rect x="760" y="130" width="290" height="86" rx="22" fill="#FFFFFF"/>
    <text x="905.0" y="181.0" font-family="Inter, Arial, sans-serif" font-size="28" font-weight="800" text-anchor="middle" fill="#0F172A">Берём в работу!</text>
  </g>
  <g>
    <rect x="94" y="675" width="1012" height="82" rx="28" fill="rgba(15,23,42,0.82)"/>
    <text x="132" y="725" font-family="Inter, Arial, sans-serif" font-size="34" font-weight="800" fill="#FFFFFF">Клиент найден</text>
    <text x="760" y="724" font-family="Inter, Arial, sans-serif" font-size="24" font-weight="700" fill="#BAE6FD">Client secured</text>
  </g>
  <text x="1030" y="168" font-family="Inter, Arial, sans-serif" font-size="72" text-anchor="middle">🤝</text>
</svg>