<svg xmlns="http://www.w3.org/2000/svg" width="512" height="512" viewBox="0 0 512 512" role="img" aria-label="HEIMDALL logo">
  <defs>
    <linearGradient id="gold" x1="92" y1="42" x2="420" y2="470" gradientUnits="userSpaceOnUse">
      <stop offset="0" stop-color="#FFF4BF"/>
      <stop offset="0.34" stop-color="#D6A84F"/>
      <stop offset="0.68" stop-color="#9C6B1D"/>
      <stop offset="1" stop-color="#F7D784"/>
    </linearGradient>
    <linearGradient id="dark" x1="120" y1="88" x2="392" y2="430" gradientUnits="userSpaceOnUse">
      <stop offset="0" stop-color="#101A2C"/>
      <stop offset="1" stop-color="#050816"/>
    </linearGradient>
    <filter id="glow" x="-35%" y="-35%" width="170%" height="170%">
      <feDropShadow dx="0" dy="0" stdDeviation="14" flood-color="#D6A84F" flood-opacity="0.32"/>
      <feDropShadow dx="0" dy="22" stdDeviation="24" flood-color="#000000" flood-opacity="0.48"/>
    </filter>
  </defs>
  <rect width="512" height="512" rx="104" fill="#050816"/>
  <path d="M256 48c72 44 132 66 190 76-11 63-37 113-78 151-34 32-72 52-112 70-40-18-78-38-112-70-41-38-67-88-78-151 58-10 118-32 190-76Z" fill="url(#dark)" stroke="url(#gold)" stroke-width="12" filter="url(#glow)"/>
  <path d="M84 178c-26 6-48 22-63 45 45-4 78 8 105 33 7 7 15 13 23 18-9-25-16-51-20-79-14-10-29-16-45-17Z" fill="url(#gold)" opacity="0.88"/>
  <path d="M428 178c26 6 48 22 63 45-45-4-78 8-105 33-7 7-15 13-23 18 9-25 16-51 20-79 14-10 29-16 45-17Z" fill="url(#gold)" opacity="0.88"/>
  <path d="M117 228c-21 11-39 29-52 53 35-7 66-2 94 16-13-20-24-43-32-68-3 0-7-1-10-1Z" fill="#B8892D" opacity="0.88"/>
  <path d="M395 228c21 11 39 29 52 53-35-7-66-2-94 16 13-20 24-43 32-68 3 0 7-1 10-1Z" fill="#B8892D" opacity="0.88"/>
  <path d="M171 186c14-61 49-93 85-93s71 32 85 93H171Z" fill="url(#gold)"/>
  <path d="M183 186h146v42c0 47-31 78-73 78s-73-31-73-78v-42Z" fill="#0B1425" stroke="url(#gold)" stroke-width="10"/>
  <path d="M198 207h116" stroke="#F7D784" stroke-width="10" stroke-linecap="round"/>
  <path d="M211 233h90" stroke="#D6A84F" stroke-width="7" stroke-linecap="round" opacity="0.82"/>
  <path d="M256 107v78" stroke="#08111F" stroke-width="14" stroke-linecap="round" opacity="0.78"/>
  <path d="M213 125c27-16 59-16 86 0" fill="none" stroke="#FFF4BF" stroke-width="7" stroke-linecap="round" opacity="0.72"/>
  <path d="M256 331 194 304v-55c17 33 39 49 62 49s45-16 62-49v55l-62 27Z" fill="url(#gold)" opacity="0.94"/>
  <path d="M152 348c33 31 70 50 104 66 34-16 71-35 104-66" fill="none" stroke="url(#gold)" stroke-width="9" stroke-linecap="round" opacity="0.92"/>
</svg>
