<svg xmlns="http://www.w3.org/2000/svg" width="512" height="512" viewBox="0 0 512 512">
  <defs>
    <linearGradient id="gold" x1="110" y1="70" x2="400" y2="440" gradientUnits="userSpaceOnUse">
      <stop offset="0" stop-color="#FFF2B8"/>
      <stop offset="0.35" stop-color="#D4AF37"/>
      <stop offset="0.7" stop-color="#A97918"/>
      <stop offset="1" stop-color="#F6D982"/>
    </linearGradient>
    <filter id="glow" x="-40%" y="-40%" width="180%" height="180%">
      <feDropShadow dx="0" dy="0" stdDeviation="12" flood-color="#D4AF37" flood-opacity="0.35"/>
      <feDropShadow dx="0" dy="20" stdDeviation="22" flood-color="#000000" flood-opacity="0.45"/>
    </filter>
  </defs>
  <rect width="512" height="512" rx="96" fill="#050816"/>
  <path d="M256 42 420 136v240L256 470 92 376V136L256 42Z" fill="#08111F" stroke="url(#gold)" stroke-width="14" filter="url(#glow)"/>
  <path d="M256 78 386 153v206L256 434 126 359V153L256 78Z" fill="none" stroke="#F6D982" stroke-opacity=".32" stroke-width="4"/>
  <path d="M184 128h42v104h60V128h42v256h-42V274h-60v110h-42V128Z" fill="url(#gold)"/>
  <path d="M154 116h204" stroke="url(#gold)" stroke-width="9" stroke-linecap="round"/>
  <path d="M154 396h204" stroke="url(#gold)" stroke-width="9" stroke-linecap="round" opacity=".82"/>
  <path d="M134 164 184 198M378 164 328 198M134 348 184 314M378 348 328 314" stroke="#D4AF37" stroke-opacity=".55" stroke-width="7" stroke-linecap="round"/>
</svg>