<svg xmlns="http://www.w3.org/2000/svg" width="1460" height="340" viewBox="0 0 1460 340">
  <defs>
    <linearGradient id="gold" x1="50" y1="20" x2="310" y2="300" gradientUnits="userSpaceOnUse">
      <stop offset="0" stop-color="#FFF2B8"/>
      <stop offset="0.38" stop-color="#D4AF37"/>
      <stop offset="0.72" stop-color="#A97918"/>
      <stop offset="1" stop-color="#F6D982"/>
    </linearGradient>
    <filter id="glow" x="-40%" y="-40%" width="180%" height="180%">
      <feDropShadow dx="0" dy="0" stdDeviation="9" flood-color="#D4AF37" flood-opacity="0.34"/>
      <feDropShadow dx="0" dy="18" stdDeviation="18" flood-color="#000000" flood-opacity="0.45"/>
    </filter>
  </defs>
  <rect width="1460" height="340" rx="54" fill="#050816"/>
  <path d="M166 42 290 113v145L166 330 42 258V113L166 42Z" fill="#08111F" stroke="url(#gold)" stroke-width="10" filter="url(#glow)"/>
  <path d="M166 72 260 126v118L166 298 72 244V126L166 72Z" fill="none" stroke="#F6D982" stroke-opacity=".32" stroke-width="3"/>
  <path d="M111 94h31v62h48V94h31v153h-31v-64h-48v64h-31V94Z" fill="url(#gold)"/>
  <path d="M91 84h150M91 260h150" stroke="url(#gold)" stroke-width="6" stroke-linecap="round"/>
  <text x="350" y="160" font-family="Inter, Arial, sans-serif" font-size="82" font-weight="700" letter-spacing="24" fill="#F8FAFC">HEIMDALL</text>
  <text x="356" y="215" font-family="Inter, Arial, sans-serif" font-size="22" font-weight="600" letter-spacing="9" fill="#D4AF37">INTELLIGENCE GROUP</text>
  <path d="M350 247h640" stroke="#D4AF37" stroke-opacity=".30" stroke-width="2"/>
</svg>